# xmcd
#
# Track frame offsets:
# 150
# 14115
# 26992
# 44147
# 58667
# 75327
# 102255
# 117227
# 137200
# 159347
# 178802
#
# Disc length: 2591 seconds
#
#
# Revision: 0
# Processed by: cddbd v1.5.2PL0 Copyright (c) Steve Scherf et al.
# Submitted via: Nero 7, 11, 10, 0 
#
DISCID=990a1d0b
DTITLE=The Paramours - The Paramours
DYEAR=1999
DGENRE=Blues
TTITLE0=I Feel So Good
TTITLE1=None Of That Stuff
TTITLE2=The Ground That I Sleep In
TTITLE3=Congratulations I Suppose
TTITLE4=Bad Mouthin'
TTITLE5=I Miss My Baby
TTITLE6=Shovelhead
TTITLE7=Don't Do Nothin'
TTITLE8=Crawlin' From The Wreckage
TTITLE9=Trouble Waiting For A Ride
TTITLE10=Since I've Been Down
EXTD=
EXTT0=I Feel So Good
EXTT1=None Of That Stuff
EXTT2=The Ground That I Sleep In
EXTT3=Congratulations I Suppose
EXTT4=Bad Mouthin'
EXTT5=I Miss My Baby
EXTT6=Shovelhead
EXTT7=Don't Do Nothin'
EXTT8=Crawlin' From The Wreckage
EXTT9=Trouble Waiting For A Ride
EXTT10=Since I've Been Down
PLAYORDER=
